#N canvas 0 55 1920 1026 12;
#X obj 569 253 osc~ 440, f 10;
#X obj 569 497 dac~;
#X floatatom 804 288 5 0 0 0 - - - 0;
#X obj 804 325 osc~;
#X obj 805 355 *~ 0.75;
#X obj 803 251 * 2;
#X floatatom 567 198 5 0 0 0 - - - 0;
#X obj 564 121 loadbang;
#X msg 564 154 440;
#X floatatom 896 290 5 0 0 0 - - - 0;
#X obj 896 327 osc~;
#X floatatom 991 289 5 0 0 0 - - - 0;
#X obj 991 326 osc~;
#X floatatom 1100 289 5 0 0 0 - - - 0;
#X obj 1100 326 osc~;
#X obj 897 357 *~ 0.5;
#X obj 992 356 *~ 0.3;
#X obj 1101 356 *~ 0.25;
#X obj 570 450 *~ 0.1;
#X obj 895 253 * 3;
#X obj 990 252 * 4;
#X obj 1101 246 * 5;
#X floatatom 675 279 5 0 0 0 - - - 0;
#X obj 567 337 bp~ 220 1;
#X floatatom 741 280 5 0 0 0 - - - 0;
#X connect 0 0 23 0;
#X connect 2 0 3 0;
#X connect 3 0 4 0;
#X connect 4 0 18 0;
#X connect 5 0 2 0;
#X connect 6 0 0 0;
#X connect 6 0 5 0;
#X connect 6 0 19 0;
#X connect 6 0 20 0;
#X connect 6 0 21 0;
#X connect 7 0 8 0;
#X connect 8 0 6 0;
#X connect 9 0 10 0;
#X connect 10 0 15 0;
#X connect 11 0 12 0;
#X connect 12 0 16 0;
#X connect 13 0 14 0;
#X connect 14 0 17 0;
#X connect 15 0 18 0;
#X connect 16 0 18 0;
#X connect 17 0 18 0;
#X connect 18 0 1 0;
#X connect 18 0 1 1;
#X connect 19 0 9 0;
#X connect 20 0 11 0;
#X connect 21 0 13 0;
#X connect 22 0 23 1;
#X connect 23 0 18 0;
#X connect 24 0 23 2;
