#N canvas 96 96 1920 1026 12;
#X floatatom 443 160 5 0 0 0 - - - 0;
#X obj 443 200 osc~;
#X floatatom 263 160 5 0 0 0 - - - 0;
#X obj 255 330 osc~;
#X obj 442 242 *~;
#X obj 254 291 +~;
#X floatatom 597 157 5 0 0 0 - - - 0;
#X obj 261 370 *~ 0.5;
#X obj 263 407 dac~;
#X connect 0 0 1 0;
#X connect 1 0 4 0;
#X connect 2 0 5 0;
#X connect 3 0 7 0;
#X connect 4 0 5 1;
#X connect 5 0 3 0;
#X connect 6 0 4 1;
#X connect 7 0 8 0;
#X connect 7 0 8 1;
