#N canvas 681 -1174 1920 1026 12;
#X obj -3 -2 cnv 19 1920 1920 empty empty empty 20 12 0 12 #e0e0e0 #404040 0;
#X obj 460 237 comport 6 115200;
#X msg 447 197 devices;
#X msg 546 199 open 6;
#X msg 632 203 close;
#X obj 396 264 print;
#X obj 460 261 sel 13 10;
#X obj 460 315 cyclone/zl group 100;
#X obj 460 339 list tosymbol;
#X obj 460 363 cyclone/fromsymbol;
#X floatatom 460 464 5 0 0 0 - - - 0;
#X floatatom 624 461 5 0 0 0 - - - 0;
#X floatatom 709 462 5 0 0 0 - - - 0;
#X obj 460 387 unpack f f f f;
#X floatatom 782 460 5 0 0 0 - - - 0;
#X connect 1 0 5 0;
#X connect 1 0 6 0;
#X connect 2 0 1 0;
#X connect 3 0 1 0;
#X connect 4 0 1 0;
#X connect 6 0 7 0;
#X connect 6 2 7 0;
#X connect 7 0 8 0;
#X connect 8 0 9 0;
#X connect 9 0 13 0;
#X connect 13 0 10 0;
#X connect 13 1 11 0;
#X connect 13 2 12 0;
#X connect 13 3 14 0;
