#N canvas -5 32 450 300 12;
#X msg 529 130 devices;
#X msg 699 128 close;
#X obj 462 234 print;
#X msg 624 128 open 6;
#X obj 527 182 comport 6 115200;
#X floatatom 527 206 5 0 0 0 - - - 0;
#X connect 0 0 4 0;
#X connect 1 0 4 0;
#X connect 3 0 4 0;
#X connect 4 0 2 0;
#X connect 4 0 5 0;
