#N canvas 0 502 1920 512 12;
#X obj 471 56 loadbang;
#X obj 540 56 loadbang;
#X obj 471 200 /;
#X floatatom 471 236 5 0 0 0 - - - 0;
#X obj 540 153 t b f;
#X msg 471 86 60000;
#X msg 540 87 60;
#X floatatom 540 120 5 0 0 0 - - - 0;
#X obj 471 269 send 4th_time;
#X obj 986 59 loadbang;
#X floatatom 988 173 5 0 0 0 - - - 0;
#X obj 940 235 bng 19 250 50 0 empty empty empty 0 -10 0 12 #fcfcfc #000000 #000000;
#X obj 863 59 loadbang;
#X obj 941 343 /, f 7;
#X floatatom 940 395 5 0 0 0 - - - 0;
#X obj 939 447 send 4th_time;
#X msg 863 115 60000;
#X msg 986 115 80;
#X connect 0 0 5 0;
#X connect 1 0 6 0;
#X connect 2 0 3 0;
#X connect 3 0 8 0;
#X connect 4 0 2 0;
#X connect 4 1 2 1;
#X connect 5 0 2 0;
#X connect 6 0 7 0;
#X connect 7 0 4 0;
#X connect 9 0 17 0;
#X connect 10 0 11 0;
#X connect 10 0 13 1;
#X connect 11 0 13 0;
#X connect 12 0 16 0;
#X connect 13 0 14 0;
#X connect 14 0 15 0;
#X connect 16 0 13 0;
#X connect 17 0 10 0;
