#N canvas 991 -1190 1211 1026 12;
#X obj 474 100 inlet;
#X obj 474 124 bng 19 250 50 0 empty empty empty 0 -10 0 12 #fcfcfc #000000 #000000;
#X obj 474 148 random 8;
#X floatatom 474 172 5 0 0 0 - - - 0;
#X obj 258 281 sel 0;
#X obj 339 281 sel 1;
#X obj 420 281 sel 2;
#X obj 500 282 sel 3;
#X obj 577 280 sel 4;
#X obj 658 280 sel 5;
#X obj 739 280 sel 6;
#X obj 819 281 sel 7;
#X msg 258 342 60;
#X msg 339 342 62;
#X msg 420 342 64;
#X msg 500 343 65;
#X msg 577 341 67;
#X msg 658 341 69;
#X msg 819 342 72;
#X text 273 317 C;
#X text 352 317 D;
#X text 431 315 E;
#X text 516 317 F;
#X text 590 315 G;
#X text 671 315 A;
#X text 751 318 B;
#X text 833 316 C;
#X floatatom 502 432 5 0 0 0 - - - 0;
#X obj 504 478 mtof;
#X floatatom 504 521 5 0 0 0 - - - 0;
#X obj 504 544 outlet;
#X text 561 480 < Convert MIDI note to Frequency;
#X text 556 178 C Major Scale (MIDI);
#X msg 739 341 70;
#X connect 0 0 1 0;
#X connect 1 0 2 0;
#X connect 2 0 3 0;
#X connect 3 0 4 0;
#X connect 3 0 11 0;
#X connect 3 0 10 0;
#X connect 3 0 9 0;
#X connect 3 0 8 0;
#X connect 3 0 7 0;
#X connect 3 0 6 0;
#X connect 3 0 5 0;
#X connect 4 0 12 0;
#X connect 5 0 13 0;
#X connect 6 0 14 0;
#X connect 7 0 15 0;
#X connect 8 0 16 0;
#X connect 9 0 17 0;
#X connect 10 0 33 0;
#X connect 11 0 18 0;
#X connect 12 0 27 0;
#X connect 13 0 27 0;
#X connect 14 0 27 0;
#X connect 15 0 27 0;
#X connect 16 0 27 0;
#X connect 17 0 27 0;
#X connect 18 0 27 0;
#X connect 27 0 28 0;
#X connect 28 0 29 0;
#X connect 29 0 30 0;
#X connect 33 0 27 0;
