#N canvas 64 64 1920 1026 12;
#X obj 181 78 noise~;
#X obj 181 164 *~ 0.5;
#X obj 182 278 *~;
#X obj 320 256 line;
#X obj 321 38 bng 19 250 50 0 empty empty empty 0 -10 0 12 #fcfcfc #000000 #000000;
#X floatatom 319 295 5 0 0 0 - - - 0;
#X obj 441 113 bng 19 250 50 0 empty empty empty 0 -10 0 12 #fcfcfc #000000 #000000;
#X obj 634 170 bng 19 250 50 0 empty empty empty 0 -10 0 12 #fcfcfc #000000 #000000;
#X obj 180 319 *~ 0.25;
#X obj 179 374 dac~;
#X obj 180 208 hip~ 4000;
#X obj 441 82 delay 5;
#X msg 440 149 0.5 50;
#X msg 320 86 1 5;
#X obj 634 144 delay 50;
#X msg 632 200 0 50;
#X obj 177 516 noise~;
#X obj 178 745 *~;
#X obj 317 476 bng 19 250 50 0 empty empty empty 0 -10 0 12 #fcfcfc #000000 #000000;
#X floatatom 315 717 5 0 0 0 - - - 0;
#X obj 437 551 bng 19 250 50 0 empty empty empty 0 -10 0 12 #fcfcfc #000000 #000000;
#X obj 630 608 bng 19 250 50 0 empty empty empty 0 -10 0 12 #fcfcfc #000000 #000000;
#X obj 175 812 dac~;
#X obj 630 582 delay 50;
#X obj 175 554 *~ 1;
#X obj 175 634 *~ 20;
#X obj 175 676 clip~ -0.9 0.9;
#X obj 90 607 *~ 0.1;
#X obj 177 780 *~ 1;
#X msg 628 638 0 150;
#X obj 172 590 bp~ 150 7;
#X msg 316 524 1 5;
#X obj 437 520 delay 5;
#X msg 436 587 0.5 50;
#X obj 80 562 hip~ 6000;
#X obj 316 694 line~;
#X connect 0 0 1 0;
#X connect 1 0 10 0;
#X connect 2 0 8 0;
#X connect 3 0 5 0;
#X connect 4 0 13 0;
#X connect 4 0 11 0;
#X connect 5 0 2 1;
#X connect 6 0 12 0;
#X connect 6 0 14 0;
#X connect 7 0 15 0;
#X connect 8 0 9 0;
#X connect 8 0 9 1;
#X connect 10 0 2 0;
#X connect 11 0 6 0;
#X connect 12 0 3 0;
#X connect 13 0 3 0;
#X connect 14 0 7 0;
#X connect 15 0 3 0;
#X connect 16 0 24 0;
#X connect 16 0 34 0;
#X connect 17 0 28 0;
#X connect 18 0 31 0;
#X connect 18 0 32 0;
#X connect 19 0 17 1;
#X connect 20 0 33 0;
#X connect 20 0 23 0;
#X connect 21 0 29 0;
#X connect 23 0 21 0;
#X connect 24 0 30 0;
#X connect 25 0 26 0;
#X connect 26 0 17 0;
#X connect 27 0 26 0;
#X connect 28 0 22 0;
#X connect 28 0 22 1;
#X connect 29 0 35 0;
#X connect 30 0 25 0;
#X connect 31 0 35 0;
#X connect 32 0 20 0;
#X connect 33 0 35 0;
#X connect 34 0 27 0;
#X connect 35 0 19 0;
