#N canvas 317 -1196 2400 1296 12;
#X obj 4 274 cnv 19 2440 1920 empty empty empty 20 12 0 12 #bbbbbb #404040 0;
#X text 455 540 BPM;
#X obj 243 590 send ON;
#X obj 243 542 tgl 19 0 empty empty empty 0 -10 0 12 #fcfcfc #000000 #000000 0 1;
#X obj 243 590;
#X obj 128 1022 receive ON;
#X obj 240 1022 receive 4th_time;
#X obj 239 1074 * 4;
#X floatatom 239 1117 8 0 0 0 - - - 0;
#X obj 207 1173 metro;
#X obj 280 1173 send whole_time;
#X obj 205 1213 bng 19 250 50 0 empty empty empty 0 -10 0 12 #ffc7c6 #000000 #000000;
#X obj 204 1251 send whole_note;
#X obj 445 1018 receive ON;
#X obj 557 1018 receive 4th_time;
#X floatatom 556 1113 5 0 0 0 - - - 0;
#X obj 524 1169 metro;
#X obj 522 1209 bng 19 250 50 0 empty empty empty 0 -10 0 12 #ffc7c6 #000000 #000000;
#X obj 556 1070 * 1;
#X text 347 960 Clock Multiplication;
#X text 173 541 ON/OFF;
#X obj 521 1247 send 4th_note;
#X obj 990 1010 receive ON;
#X obj 990 1053 sel 0;
#X obj 990 1112 bng 19 250 50 0 empty empty empty 0 -10 0 12 #ffc7c6 #000000 #000000;
#X obj 891 1053 loadbang;
#X msg 990 1163 -1;
#X obj 1067 1136 receive whole_note;
#X obj 1067 1166 bng 19 250 50 0 empty empty empty 0 -10 0 12 #fcfcfc #000000 #000000;
#X obj 1066 1215 int 1;
#X floatatom 1066 1269 5 0 0 0 - - - 0;
#X obj 1155 1270 + 1;
#X obj 1066 1309 % 2;
#X obj 1065 1349 + 1;
#X obj 1064 1398 sel 1;
#X obj 1062 1442 bng 19 250 50 0 empty empty empty 0 -10 0 12 #fcfcfc #000000 #000000;
#X obj 1060 1488 tgl 19 0 empty empty empty 0 -10 0 12 #fcfcfc #000000 #000000 0 1;
#X obj 1060 1520 send Chord;
#X obj 897 1353 receive ON;
#X obj 896 1402 sel 1;
#X obj 963 1404 loadbang;
#X msg 965 1458 1;
#X text 900 1111 Reset;
#X text 1124 1304 Every 2 measures \, the toggle object below will toggle On/off;
#X text 1159 1521 < Bass;
#X text 975 947 Clock/Sequencer;
#X text 1845 929 Bass;
#X text 1711 290 Melody;
#X text 914 560 Out;
#X obj 854 633 receive~ Bass;
#X obj 983 794 *~ 0.5;
#X obj 919 860 dac~;
#X obj 987 632 receive~ Ambient_Pad;
#X obj 445 596 loadbang;
#X obj 514 596 loadbang;
#X obj 445 740 /;
#X floatatom 445 776 5 0 0 0 - - - 0;
#X obj 514 693 t b f;
#X msg 445 626 60000;
#X floatatom 514 660 5 0 0 0 - - - 0;
#X obj 445 809 send 4th_time;
#X obj 1799 991 r Chord;
#X obj 1799 1015 tgl 19 0 empty empty empty 0 -10 0 12 #fcfcfc #000000 #000000 0 1;
#X obj 1799 1039 sel 0;
#X obj 1850 1090 bng 19 250 50 0 empty empty empty 0 -10 0 12 #ffc7c6 #000000 #000000;
#X obj 1894 1090 bng 19 250 50 0 empty empty empty 0 -10 0 12 #ffc7c6 #000000 #000000;
#X msg 1943 1151 87.31;
#X text 1951 1130 F;
#X floatatom 1799 1202 5 0 0 0 - - - 0;
#X obj 1800 1245 phasor~;
#X obj 1799 1372 *~;
#X obj 1798 1418 send~ Bass;
#X text 2142 1060 Envelope;
#X obj 2052 1104 receive ON;
#X obj 2054 1149 sel 1;
#X obj 2053 1180 bng 19 250 50 0 empty empty empty 0 -10 0 12 #ffc7c6 #000000 #000000;
#X msg 2054 1225 1 500;
#X obj 2054 1321 line;
#X obj 2216 1100 receive whole_time;
#X obj 2216 1133 * 2;
#X floatatom 2215 1164 5 0 0 0 - - - 0;
#X obj 2214 1201 - 100;
#X obj 2302 1157 receive ON;
#X obj 2302 1193 sel 0;
#X obj 2302 1228 delay 5;
#X obj 2159 1240 delay;
#X obj 1709 335 r whole_note;
#X obj 1709 379 bng 19 250 50 0 empty empty empty 0 -10 0 12 #ffc7c6 #000000 #000000;
#X floatatom 1808 466 5 0 0 0 - - - 0;
#X obj 1809 617 phasor~;
#X floatatom 1904 561 5 0 0 0 - - - 0;
#X obj 1904 617 phasor~;
#X obj 1803 727 *~;
#X obj 1803 758 *~ 0.5;
#X obj 2059 412 bng 19 250 50 0 empty empty empty 0 -10 0 12 #ffc7c6 #000000 #000000;
#X msg 2059 548 1 500;
#X obj 2059 640 line;
#X text 2057 345 Envelope;
#X obj 2206 390 receive whole_time;
#X floatatom 2205 454 5 0 0 0 - - - 0;
#X obj 2292 447 receive ON;
#X obj 2292 483 sel 0;
#X obj 2292 518 delay 5;
#X obj 2149 530 delay;
#X obj 2204 491 - 500;
#X obj 1709 424 ChordScales;
#X obj 1802 790 send~ Ambient_Pad;
#X msg 2159 1278 0 500;
#X msg 2148 568 0 1500;
#N canvas 101 355 513 414 message-out 0;
#X obj 20 17 inlet;
#X obj 20 63 s \$0-program-data;
#X obj 20 40 route program_data bank_data, f 39;
#X obj 135 63 s \$0-bank-data;
#X obj 278 135 print;
#X obj 278 114 spigot 1;
#X obj 337 114 tgl 15 0 empty empty empty 17 7 0 10 #fcfcfc #000000 #000000 0 1;
#X text 358 113 print messages;
#X obj 251 86 s \$0-out;
#X obj 251 63 t a a;
#X msg 28 178 param_automated <index> <value>;
#X msg 28 204 latency <numsamples>;
#X msg 30 257 midi <bytes...>;
#X msg 29 284 sysex <bytes...>;
#X text 233 172 a parameter has been changed in the GUI (or by changing a linked parameter)., f 40;
#X text 162 204 the plugin's internal processing latency has changed;
#X text 139 257 a MIDI message sent by the plugin;
#X text 139 284 a SysEx message sent by the plugin;
#X text 28 153 events:;
#X text 163 222 NOTE: the value includes the additional latency caused by multithreading (see the "-t" flag for "open"), f 55;
#X msg 29 337 crash;
#X text 312 85 goes to vstpresetbrowser;
#X text 23 87 see [pd preset];
#X text 83 338 the plugin subprocess has crashed.;
#X text 84 356 This is only sent for bridged or sandboxed plugins \, because normal plugins would simply crash Pd., f 52;
#X msg 29 311 update;
#X text 87 312 multiple parameters have changed internally;
#X connect 0 0 2 0;
#X connect 2 0 1 0;
#X connect 2 1 3 0;
#X connect 2 2 9 0;
#X connect 5 0 4 0;
#X connect 6 0 5 1;
#X connect 9 0 8 0;
#X connect 9 1 5 0;
#X restore 1349 738 pd message-out;
#X msg 1505 738 param_list;
#X obj 990 490 hsl 162 19 0 1 0 0 empty empty empty -2 -10 1 12 #ffc7c6 #000000 #000000 0 1;
#X obj 985 743 vstplugin~ -k;
#A open -e ValhallaSupermassive;
#A program_set 0;
#A program_data_set 67 99 110 75 0 0 2 52 70 80 67 104 0 0 0 1 115 77 97 115 0 1 0 0 0 0 0 18 0 0 0 0 0 0 0 0 0 0 0 0 0 0 0 0 0 0 0 0 0 0 0 0 0 0 0 0 0 0 2 0 86 67 50 33 247 1 0 0 60 63 120 109 108 32 118 101 114 115 105 111 110 61 34 49 46 48 34 32 101 110 99 111 100 105 110 103 61 34 85 84 70 45 56 34 63 62 32 60 86 97 108 104 97 108 108 97 83 117 112 101 114 109 97 115 115 105 118 101 32 112 108 117 103 105 110 86 101 114 115 105 111 110 61 34 49 46 48 46 48 34 32 112 114 101 115 101 116 78 97 109 101 61 34 70 97 115 116 69 110 115 101 109 98 108 101 34 32 77 105 120 61 34 48 46 48 34 32 68 101 108 97 121 83 121 110 99 61 34 48 46 50 53 34 32 68 101 108 97 121 78 111 116 101 61 34 48 46 53 57 50 48 48 48 48 48 55 54 50 57 51 57 52 53 34 32 68 101 108 97 121 95 77 115 61 34 48 46 48 48 48 57 55 55 53 49 55 49 48 53 54 51 56 57 56 48 57 34 32 68 101 108 97 121 87 97 114 112 61 34 48 46 54 52 57 57 57 57 57 55 54 49 53 56 49 52 50 49 34 32 67 108 101 97 114 61 34 49 46 48 34 32 70 101 101 100 98 97 99 107 61 34 48 46 55 53 34 32 68 101 110 115 105 116 121 61 34 49 46 48 34 32 87 105 100 116 104 61 34 49 46 48 34 32 76 111 119 67 117 116 61 34 48 46 48 34 32 72 105 103 104 67 117 116 61 34 49 46 48 34 32 77 111 100 82 97 116 101 61 34 48 46 51 49 55 50 49 50 48 55 52 57 57 53 48 52 48 57 34 32 77 111 100 68 101 112 116 104 61 34 48 46 54 48 48 48 48 48 48 50 51 56 52 49 56 53 55 57 34 32 77 111 100 101 61 34 48 46 49 54 54 54 54 54 54 55 49 54 51 51 55 50 48 52 34 32 82 101 115 101 114 118 101 100 49 61 34 48 46 48 34 32 82 101 115 101 114 118 101 100 50 61 34 48 46 48 34 32 82 101 115 101 114 118 101 100 51 61 34 48 46 48 34 32 82 101 115 101 114 118 101 100 52 61 34 48 46 48 34 32 109 105 120 76 111 99 107 61 34 48 34 32 117 105 87 105 100 116 104 61 34 55 50 53 34 32 117 105 72 101 105 103 104 116 61 34 51 56 53 34 47 62 0;
#X obj 1197 488 hsl 162 19 0 1 0 0 empty empty empty -2 -10 1 12 #ffc7c6 #000000 #000000 0 1;
#X text 1194 454 Delay ms;
#X text 992 451 Mix;
#X msg 1347 712 open -e ValhallaSupermassive;
#X msg 987 581 param_set 0 \$1;
#X obj 1806 674 lop~ 100, f 11;
#X obj 1699 1093 bng 19 250 50 0 empty empty empty 0 -10 0 12 #ffc7c6 #000000 #000000;
#X msg 1699 1156 130.81;
#X text 1711 1135 C;
#X text 1862 1132 G;
#X msg 1850 1153 98;
#X obj 1777 1088 bng 19 250 50 0 empty empty empty 0 -10 0 12 #ffc7c6 #000000 #000000;
#X text 1789 1130 D;
#X msg 1776 1151 73.42;
#X obj 1801 1295 lop~ 50;
#X msg 514 627 100;
#X obj 856 792 *~ 0.3;
#X obj 1417 336 comport 6 115200;
#X msg 1404 296 devices;
#X msg 1503 298 open 6;
#X msg 1589 302 close;
#X obj 1353 363 print;
#X obj 1417 360 sel 13 10;
#X obj 1417 414 cyclone/zl group 100;
#X obj 1417 438 list tosymbol;
#X obj 1417 462 cyclone/fromsymbol;
#X floatatom 1417 563 5 0 0 0 - - - 0;
#X floatatom 1581 560 5 0 0 0 - - - 0;
#X msg 988 551 param_set 3 \$1;
#X obj 1417 586 / 1023;
#X obj 1581 583 / 1023;
#X obj 1417 486 unpack f f f f;
#X floatatom 749 323 5 0 0 0 - - - 0;
#X obj 276 359 sel 0;
#X obj 751 366 sel 1;
#X obj 751 390 bng 19 250 50 0 empty empty empty 0 -10 0 12 #fcfcfc #000000 #000000;
#X obj 276 383 bng 19 250 50 0 empty empty empty 0 -10 0 12 #fcfcfc #000000 #000000;
#X msg 276 407 2;
#X obj 159 357 loadbang;
#X msg 159 381 2;
#X msg 162 466 1;
#X text 339 299 Debounce algorithm;
#X obj 313 467 bng 19 250 50 0 empty empty empty 0 -10 0 12 #fcfcfc #000000 #000000;
#X obj 276 431 gate 2;
#X obj 1902 516 * 4.15;
#X connect 3 0 2 0;
#X connect 5 0 9 0;
#X connect 6 0 7 0;
#X connect 7 0 8 0;
#X connect 8 0 9 1;
#X connect 8 0 10 0;
#X connect 9 0 11 0;
#X connect 11 0 12 0;
#X connect 13 0 16 0;
#X connect 14 0 18 0;
#X connect 15 0 16 1;
#X connect 16 0 17 0;
#X connect 17 0 21 0;
#X connect 18 0 15 0;
#X connect 22 0 23 0;
#X connect 23 0 24 0;
#X connect 24 0 26 0;
#X connect 25 0 24 0;
#X connect 26 0 29 0;
#X connect 27 0 28 0;
#X connect 28 0 29 0;
#X connect 29 0 30 0;
#X connect 29 0 31 0;
#X connect 30 0 32 0;
#X connect 31 0 29 1;
#X connect 32 0 33 0;
#X connect 33 0 34 0;
#X connect 34 0 35 0;
#X connect 35 0 36 0;
#X connect 36 0 37 0;
#X connect 38 0 39 0;
#X connect 39 0 41 0;
#X connect 40 0 41 0;
#X connect 41 0 36 0;
#X connect 49 0 50 0;
#X connect 49 0 129 0;
#X connect 50 0 51 0;
#X connect 50 0 51 1;
#X connect 52 0 112 1;
#X connect 52 0 112 0;
#X connect 53 0 58 0;
#X connect 54 0 128 0;
#X connect 55 0 56 0;
#X connect 56 0 60 0;
#X connect 57 0 55 0;
#X connect 57 1 55 1;
#X connect 58 0 55 0;
#X connect 59 0 57 0;
#X connect 61 0 62 0;
#X connect 62 0 63 0;
#X connect 63 0 64 0;
#X connect 63 0 119 0;
#X connect 63 0 124 0;
#X connect 63 1 65 0;
#X connect 64 0 123 0;
#X connect 65 0 66 0;
#X connect 66 0 68 0;
#X connect 68 0 69 0;
#X connect 69 0 127 0;
#X connect 70 0 71 0;
#X connect 73 0 74 0;
#X connect 74 0 75 0;
#X connect 75 0 76 0;
#X connect 76 0 77 0;
#X connect 77 0 70 1;
#X connect 78 0 79 0;
#X connect 79 0 80 0;
#X connect 80 0 81 0;
#X connect 81 0 85 1;
#X connect 82 0 83 0;
#X connect 83 0 84 0;
#X connect 84 0 107 0;
#X connect 85 0 107 0;
#X connect 86 0 87 0;
#X connect 86 0 94 0;
#X connect 87 0 105 0;
#X connect 88 0 89 0;
#X connect 89 0 118 0;
#X connect 90 0 91 0;
#X connect 91 0 118 0;
#X connect 92 0 93 0;
#X connect 93 0 106 0;
#X connect 94 0 95 0;
#X connect 94 0 103 0;
#X connect 95 0 96 0;
#X connect 96 0 92 1;
#X connect 98 0 99 0;
#X connect 99 0 104 0;
#X connect 100 0 101 0;
#X connect 101 0 102 0;
#X connect 102 0 108 0;
#X connect 103 0 108 0;
#X connect 104 0 103 1;
#X connect 105 0 88 0;
#X connect 107 0 77 0;
#X connect 108 0 96 0;
#X connect 110 0 112 0;
#X connect 111 0 117 0;
#X connect 112 0 50 0;
#X connect 112 1 50 0;
#X connect 112 2 109 0;
#X connect 113 0 141 0;
#X connect 116 0 112 0;
#X connect 117 0 112 0;
#X connect 118 0 92 0;
#X connect 119 0 120 0;
#X connect 120 0 68 0;
#X connect 123 0 68 0;
#X connect 124 0 126 0;
#X connect 126 0 68 0;
#X connect 127 0 70 0;
#X connect 128 0 59 0;
#X connect 129 0 51 0;
#X connect 129 0 51 1;
#X connect 130 0 134 0;
#X connect 130 0 135 0;
#X connect 131 0 130 0;
#X connect 132 0 130 0;
#X connect 133 0 130 0;
#X connect 135 0 136 0;
#X connect 135 2 136 0;
#X connect 136 0 137 0;
#X connect 137 0 138 0;
#X connect 138 0 144 0;
#X connect 139 0 142 0;
#X connect 140 0 143 0;
#X connect 141 0 112 0;
#X connect 142 0 111 0;
#X connect 143 0 113 0;
#X connect 144 0 139 0;
#X connect 144 1 140 0;
#X connect 144 2 157 0;
#X connect 144 3 145 0;
#X connect 145 0 146 0;
#X connect 145 0 147 0;
#X connect 146 0 149 0;
#X connect 147 0 148 0;
#X connect 148 0 156 1;
#X connect 149 0 150 0;
#X connect 150 0 156 0;
#X connect 151 0 152 0;
#X connect 152 0 156 0;
#X connect 153 0 156 0;
#X connect 155 0 153 0;
#X connect 155 0 3 0;
#X connect 156 1 155 0;
#X connect 157 0 90 0;
#X coords 0 6480 5 6475 0 0 0;
