#N canvas 174 229 450 300 12;
#X obj 0 1 cnv 19 1920 1080 empty empty empty 20 12 0 12 #dfdfdf #404040 0;
#X obj 311 172 bng 19 250 50 0 empty empty empty 0 -10 0 12 #fcfcfc #000000 #000000;
#X obj 311 196 openpanel;
#X msg 311 220 read -resize \$1 sample;
#X obj 311 244 soundfiler;
#X floatatom 311 268 10 0 0 0 - - - 0;
#X obj 438 269 print;
#X msg 314 312 \; sample normalize;
#X obj 313 350 bng 19 250 50 0 empty empty empty 0 -10 0 12 #fcfcfc #000000 #000000;
#X obj 313 396 tabplay~ sample;
#X obj 313 420 outlet;
#N canvas 64 64 450 250 (subpatch) 0;
#X coords 0 1 100 -1 200 140 1 0 0;
#X restore 548 172 graph;
#X text 547 143 sample;
#X connect 1 0 2 0;
#X connect 2 0 3 0;
#X connect 3 0 4 0;
#X connect 4 0 5 0;
#X connect 4 1 6 0;
#X connect 8 0 9 0;
#X connect 9 0 10 0;
#X connect 9 1 8 0;
