#N canvas 430 -1229 1920 1037 12;
#X obj 241 28 loadbang;
#X obj 209 151 metro;
#X obj 135 86 tgl 19 0 empty empty empty 0 -10 0 12 #fcfcfc #000000 #000000 0 1;
#X obj 135 150 sel 0;
#X obj 133 194 bng 19 250 50 0 empty empty empty 0 -10 0 12 #fcfcfc #000000 #000000;
#X obj 53 150 loadbang;
#X obj 206 268 int 1;
#X obj 208 193 bng 19 250 50 0 empty empty empty 0 -10 0 12 #fcfcfc #000000 #000000;
#X msg 133 232 -1;
#X obj 327 330 + 1;
#X floatatom 208 327 5 0 0 0 - - - 0;
#X obj 206 369 % 8;
#X obj 205 572 bng 19 250 50 0 empty empty empty 0 -10 0 12 #fcfcfc #000000 #000000;
#X obj 279 573 bng 19 250 50 0 empty empty empty 0 -10 0 12 #fcfcfc #000000 #000000;
#X obj 356 574 bng 19 250 50 0 empty empty empty 0 -10 0 12 #fcfcfc #000000 #000000;
#X obj 444 575 bng 19 250 50 0 empty empty empty 0 -10 0 12 #fcfcfc #000000 #000000;
#X obj 532 578 bng 19 250 50 0 empty empty empty 0 -10 0 12 #fcfcfc #000000 #000000;
#X obj 618 581 bng 19 250 50 0 empty empty empty 0 -10 0 12 #fcfcfc #000000 #000000;
#X obj 693 581 bng 19 250 50 0 empty empty empty 0 -10 0 12 #fcfcfc #000000 #000000;
#X obj 131 524 sel 1;
#X obj 131 572 bng 19 250 50 0 empty empty empty 0 -10 0 12 #fcfcfc #000000 #000000;
#X obj 129 627 s One;
#X obj 205 524 sel 2;
#X obj 279 525 sel 3;
#X obj 356 526 sel 4;
#X obj 444 527 sel 5;
#X obj 532 530 sel 6;
#X obj 618 533 sel 7;
#X obj 693 533 sel 8;
#X obj 203 627 s Two;
#X obj 277 628 s Three;
#X obj 354 629 s Four;
#X obj 442 630 s Five;
#X obj 530 633 s Six;
#X obj 616 636 s Seven;
#X obj 691 636 s Eight;
#X obj 16 743 receive One;
#X obj 238 740 receive Two;
#X obj 440 738 receive Three;
#X obj 625 739 receive Four;
#X obj 836 741 receive Five;
#X obj 1037 742 receive Six;
#X obj 1213 744 receive Seven;
#X obj 1434 744 receive Eight;
#X obj 13 840 spigot;
#X obj 14 793 bng 19 250 50 0 empty empty empty 0 -10 0 12 #fcfcfc #000000 #000000;
#X obj 82 810 tgl 19 0 empty empty empty 0 -10 0 12 #fcfcfc #000000 #000000 0 1;
#X obj 235 836 spigot;
#X obj 236 789 bng 19 250 50 0 empty empty empty 0 -10 0 12 #fcfcfc #000000 #000000;
#X obj 295 809 tgl 19 0 empty empty empty 0 -10 0 12 #fcfcfc #000000 #000000 0 1;
#X obj 445 836 spigot;
#X obj 446 789 bng 19 250 50 0 empty empty empty 0 -10 0 12 #fcfcfc #000000 #000000;
#X obj 505 809 tgl 19 0 empty empty empty 0 -10 0 12 #fcfcfc #000000 #000000 0 1;
#X obj 625 836 spigot;
#X obj 626 789 bng 19 250 50 0 empty empty empty 0 -10 0 12 #fcfcfc #000000 #000000;
#X obj 685 809 tgl 19 0 empty empty empty 0 -10 0 12 #fcfcfc #000000 #000000 0 1;
#X obj 836 836 spigot;
#X obj 837 789 bng 19 250 50 0 empty empty empty 0 -10 0 12 #fcfcfc #000000 #000000;
#X obj 896 809 tgl 19 0 empty empty empty 0 -10 0 12 #fcfcfc #000000 #000000 0 1;
#X obj 1036 836 spigot;
#X obj 1037 789 bng 19 250 50 0 empty empty empty 0 -10 0 12 #fcfcfc #000000 #000000;
#X obj 1096 809 tgl 19 0 empty empty empty 0 -10 0 12 #fcfcfc #000000 #000000 0 1;
#X obj 1216 836 spigot;
#X obj 1217 789 bng 19 250 50 0 empty empty empty 0 -10 0 12 #fcfcfc #000000 #000000;
#X obj 1276 809 tgl 19 0 empty empty empty 0 -10 0 12 #fcfcfc #000000 #000000 0 1;
#X obj 1433 839 spigot;
#X obj 1437 789 bng 19 250 50 0 empty empty empty 0 -10 0 12 #fcfcfc #000000 #000000;
#X obj 1496 809 tgl 19 0 empty empty empty 0 -10 0 12 #fcfcfc #000000 #000000 0 1;
#X obj 14 897 bng 19 250 50 0 empty empty empty 0 -10 0 12 #fcfcfc #000000 #000000;
#X obj 235 893 bng 19 250 50 0 empty empty empty 0 -10 0 12 #fcfcfc #000000 #000000;
#X obj 445 893 bng 19 250 50 0 empty empty empty 0 -10 0 12 #fcfcfc #000000 #000000;
#X obj 625 893 bng 19 250 50 0 empty empty empty 0 -10 0 12 #fcfcfc #000000 #000000;
#X obj 835 893 bng 19 250 50 0 empty empty empty 0 -10 0 12 #fcfcfc #000000 #000000;
#X obj 1035 893 bng 19 250 50 0 empty empty empty 0 -10 0 12 #fcfcfc #000000 #000000;
#X obj 1215 893 bng 19 250 50 0 empty empty empty 0 -10 0 12 #fcfcfc #000000 #000000;
#X obj 1435 893 bng 19 250 50 0 empty empty empty 0 -10 0 12 #fcfcfc #000000 #000000;
#X obj 474 1075 bng 19 250 50 0 empty empty empty 0 -10 0 12 #fcfcfc #000000 #000000;
#X obj 473 1159 readsf~;
#X obj 473 1237 dac~;
#X msg 473 1116 open kick.wav \, 1;
#X floatatom 203 422 5 0 0 0 - - - 0;
#X obj 204 393 + 1;
#X text 65 199 Reset;
#X obj 479 983 send Kick;
#X obj 475 1027 receive Kick;
#X msg 244 68 400;
#X floatatom 242 112 5 0 0 0 - - - 0;
#X obj 991 446 spigot;
#X obj 992 399 bng 19 250 50 0 empty empty empty 0 -10 0 12 #fcfcfc #000000 #000000;
#X obj 1051 399 tgl 19 0 empty empty empty 0 -10 0 12 #fcfcfc #000000 #000000 0 1;
#X obj 1102 446 spigot;
#X obj 1103 399 bng 19 250 50 0 empty empty empty 0 -10 0 12 #fcfcfc #000000 #000000;
#X obj 1162 399 tgl 19 0 empty empty empty 0 -10 0 12 #fcfcfc #000000 #000000 0 1;
#X obj 1222 446 spigot;
#X obj 1223 399 bng 19 250 50 0 empty empty empty 0 -10 0 12 #fcfcfc #000000 #000000;
#X obj 1282 399 tgl 19 0 empty empty empty 0 -10 0 12 #fcfcfc #000000 #000000 0 1;
#X obj 1322 446 spigot;
#X obj 1323 399 bng 19 250 50 0 empty empty empty 0 -10 0 12 #fcfcfc #000000 #000000;
#X obj 1382 399 tgl 19 0 empty empty empty 0 -10 0 12 #fcfcfc #000000 #000000 0 1;
#X obj 1433 446 spigot;
#X obj 1434 399 bng 19 250 50 0 empty empty empty 0 -10 0 12 #fcfcfc #000000 #000000;
#X obj 1493 399 tgl 19 0 empty empty empty 0 -10 0 12 #fcfcfc #000000 #000000 0 1;
#X obj 1543 446 spigot;
#X obj 1544 399 bng 19 250 50 0 empty empty empty 0 -10 0 12 #fcfcfc #000000 #000000;
#X obj 1603 399 tgl 19 0 empty empty empty 0 -10 0 12 #fcfcfc #000000 #000000 0 1;
#X obj 1653 446 spigot;
#X obj 1654 399 bng 19 250 50 0 empty empty empty 0 -10 0 12 #fcfcfc #000000 #000000;
#X obj 1713 399 tgl 19 0 empty empty empty 0 -10 0 12 #fcfcfc #000000 #000000 0 1;
#X obj 1770 449 spigot;
#X obj 1774 399 bng 19 250 50 0 empty empty empty 0 -10 0 12 #fcfcfc #000000 #000000;
#X obj 1833 399 tgl 19 0 empty empty empty 0 -10 0 12 #fcfcfc #000000 #000000 0 1;
#X obj 992 503 bng 19 250 50 0 empty empty empty 0 -10 0 12 #fcfcfc #000000 #000000;
#X obj 1102 503 bng 19 250 50 0 empty empty empty 0 -10 0 12 #fcfcfc #000000 #000000;
#X obj 1222 503 bng 19 250 50 0 empty empty empty 0 -10 0 12 #fcfcfc #000000 #000000;
#X obj 1322 503 bng 19 250 50 0 empty empty empty 0 -10 0 12 #fcfcfc #000000 #000000;
#X obj 1432 503 bng 19 250 50 0 empty empty empty 0 -10 0 12 #fcfcfc #000000 #000000;
#X obj 1542 503 bng 19 250 50 0 empty empty empty 0 -10 0 12 #fcfcfc #000000 #000000;
#X obj 1652 503 bng 19 250 50 0 empty empty empty 0 -10 0 12 #fcfcfc #000000 #000000;
#X obj 1772 503 bng 19 250 50 0 empty empty empty 0 -10 0 12 #fcfcfc #000000 #000000;
#X obj 655 1075 bng 19 250 50 0 empty empty empty 0 -10 0 12 #fcfcfc #000000 #000000;
#X obj 654 1159 readsf~;
#X obj 654 1313 dac~;
#X obj 836 1075 bng 19 250 50 0 empty empty empty 0 -10 0 12 #fcfcfc #000000 #000000;
#X obj 835 1159 readsf~;
#X obj 834 1246 dac~;
#X obj 656 1027 receive Snare;
#X obj 837 1027 receive HH;
#X obj 1356 623 send HH;
#X msg 654 1116 open snare.wav \, 1;
#X msg 835 1116 open hh.wav \, 1;
#X obj 1101 -332 loadbang;
#X obj 1069 -209 metro;
#X obj 995 -274 tgl 19 0 empty empty empty 0 -10 0 12 #fcfcfc #000000 #000000 0 1;
#X obj 995 -210 sel 0;
#X obj 993 -166 bng 19 250 50 0 empty empty empty 0 -10 0 12 #fcfcfc #000000 #000000;
#X obj 913 -210 loadbang;
#X obj 1066 -92 int 1;
#X obj 1068 -167 bng 19 250 50 0 empty empty empty 0 -10 0 12 #fcfcfc #000000 #000000;
#X msg 993 -128 -1;
#X obj 1187 -30 + 1;
#X floatatom 1068 -33 5 0 0 0 - - - 0;
#X obj 1066 9 % 8;
#X obj 1065 212 bng 19 250 50 0 empty empty empty 0 -10 0 12 #fcfcfc #000000 #000000;
#X obj 1139 213 bng 19 250 50 0 empty empty empty 0 -10 0 12 #fcfcfc #000000 #000000;
#X obj 1216 214 bng 19 250 50 0 empty empty empty 0 -10 0 12 #fcfcfc #000000 #000000;
#X obj 1304 215 bng 19 250 50 0 empty empty empty 0 -10 0 12 #fcfcfc #000000 #000000;
#X obj 1392 218 bng 19 250 50 0 empty empty empty 0 -10 0 12 #fcfcfc #000000 #000000;
#X obj 1478 221 bng 19 250 50 0 empty empty empty 0 -10 0 12 #fcfcfc #000000 #000000;
#X obj 1553 221 bng 19 250 50 0 empty empty empty 0 -10 0 12 #fcfcfc #000000 #000000;
#X obj 991 164 sel 1;
#X obj 991 212 bng 19 250 50 0 empty empty empty 0 -10 0 12 #fcfcfc #000000 #000000;
#X obj 1065 164 sel 2;
#X obj 1139 165 sel 3;
#X obj 1216 166 sel 4;
#X obj 1304 167 sel 5;
#X obj 1392 170 sel 6;
#X obj 1478 173 sel 7;
#X obj 1553 173 sel 8;
#X floatatom 1063 62 5 0 0 0 - - - 0;
#X obj 1064 33 + 1;
#X text 925 -161 Reset;
#X msg 1104 -292 400;
#X floatatom 1102 -248 5 0 0 0 - - - 0;
#X obj 989 267 s OneHH;
#X obj 994 349 receive OneHH;
#X obj 1063 267 s TwoHH;
#X obj 1105 350 receive TwoHH;
#X obj 1137 268 s ThreeHH;
#X obj 1214 269 s FourHH;
#X obj 1217 348 receive ThreeHH;
#X obj 1302 270 s FiveHH;
#X obj 1322 349 receive FourHH;
#X obj 1390 273 s SixHH;
#X obj 1476 276 s SevenHH;
#X obj 1433 351 receive FiveHH;
#X obj 1551 276 s EightHH;
#X obj 1544 352 receive SixHH;
#X obj 1650 354 receive SevenHH;
#X obj 1771 354 receive EightHH;
#X obj 834 1212 *~ 0.3;
#X obj 4 374 % 16;
#X obj 5 423 + 1;
#X floatatom 4 460 5 0 0 0 - - - 0;
#X obj 4 502 sel 1;
#X obj 2 546 bng 19 250 50 0 empty empty empty 0 -10 0 12 #fcfcfc #000000 #000000;
#X obj 0 586 s NewPattern;
#X obj 119 692 r NewPattern;
#X obj 119 716 bng 19 250 50 0 empty empty empty 0 -10 0 12 #fcfcfc #000000 #000000;
#X obj 119 740 random 100;
#X floatatom 119 764 5 0 0 0 - - - 0;
#X obj 119 787 < 100;
#X obj 339 672 r NewPattern;
#X obj 339 696 bng 19 250 50 0 empty empty empty 0 -10 0 12 #fcfcfc #000000 #000000;
#X obj 339 720 random 100;
#X floatatom 339 744 5 0 0 0 - - - 0;
#X obj 549 672 r NewPattern;
#X obj 549 696 bng 19 250 50 0 empty empty empty 0 -10 0 12 #fcfcfc #000000 #000000;
#X obj 549 720 random 100;
#X floatatom 549 744 5 0 0 0 - - - 0;
#X obj 729 672 r NewPattern;
#X obj 729 696 bng 19 250 50 0 empty empty empty 0 -10 0 12 #fcfcfc #000000 #000000;
#X obj 729 720 random 100;
#X floatatom 729 744 5 0 0 0 - - - 0;
#X obj 939 672 r NewPattern;
#X obj 939 696 bng 19 250 50 0 empty empty empty 0 -10 0 12 #fcfcfc #000000 #000000;
#X obj 939 720 random 100;
#X floatatom 939 744 5 0 0 0 - - - 0;
#X obj 1129 672 r NewPattern;
#X obj 1129 696 bng 19 250 50 0 empty empty empty 0 -10 0 12 #fcfcfc #000000 #000000;
#X obj 1129 720 random 100;
#X floatatom 1129 744 5 0 0 0 - - - 0;
#X obj 1129 767 < 85;
#X obj 1319 672 r NewPattern;
#X obj 1319 696 bng 19 250 50 0 empty empty empty 0 -10 0 12 #fcfcfc #000000 #000000;
#X obj 1319 720 random 100;
#X floatatom 1319 744 5 0 0 0 - - - 0;
#X obj 1539 672 r NewPattern;
#X obj 1539 696 bng 19 250 50 0 empty empty empty 0 -10 0 12 #fcfcfc #000000 #000000;
#X obj 1539 720 random 100;
#X floatatom 1539 744 5 0 0 0 - - - 0;
#X obj 549 767 < 100;
#X obj 1319 767 < 100;
#X obj 1539 767 < 45;
#X obj 1216 1043 receive One;
#X obj 1438 1040 receive Two;
#X obj 1640 1038 receive Three;
#X obj 1825 1039 receive Four;
#X obj 2036 1041 receive Five;
#X obj 2237 1042 receive Six;
#X obj 2413 1044 receive Seven;
#X obj 2634 1044 receive Eight;
#X obj 1213 1140 spigot;
#X obj 1214 1093 bng 19 250 50 0 empty empty empty 0 -10 0 12 #fcfcfc #000000 #000000;
#X obj 1282 1110 tgl 19 0 empty empty empty 0 -10 0 12 #fcfcfc #000000 #000000 0 1;
#X obj 1435 1136 spigot;
#X obj 1436 1089 bng 19 250 50 0 empty empty empty 0 -10 0 12 #fcfcfc #000000 #000000;
#X obj 1495 1109 tgl 19 0 empty empty empty 0 -10 0 12 #fcfcfc #000000 #000000 0 1;
#X obj 1645 1136 spigot;
#X obj 1646 1089 bng 19 250 50 0 empty empty empty 0 -10 0 12 #fcfcfc #000000 #000000;
#X obj 1705 1109 tgl 19 0 empty empty empty 0 -10 0 12 #fcfcfc #000000 #000000 0 1;
#X obj 1825 1136 spigot;
#X obj 1826 1089 bng 19 250 50 0 empty empty empty 0 -10 0 12 #fcfcfc #000000 #000000;
#X obj 1885 1109 tgl 19 0 empty empty empty 0 -10 0 12 #fcfcfc #000000 #000000 0 1;
#X obj 2036 1136 spigot;
#X obj 2037 1089 bng 19 250 50 0 empty empty empty 0 -10 0 12 #fcfcfc #000000 #000000;
#X obj 2096 1109 tgl 19 0 empty empty empty 0 -10 0 12 #fcfcfc #000000 #000000 0 1;
#X obj 2236 1136 spigot;
#X obj 2237 1089 bng 19 250 50 0 empty empty empty 0 -10 0 12 #fcfcfc #000000 #000000;
#X obj 2296 1109 tgl 19 0 empty empty empty 0 -10 0 12 #fcfcfc #000000 #000000 0 1;
#X obj 2416 1136 spigot;
#X obj 2417 1089 bng 19 250 50 0 empty empty empty 0 -10 0 12 #fcfcfc #000000 #000000;
#X obj 2476 1109 tgl 19 0 empty empty empty 0 -10 0 12 #fcfcfc #000000 #000000 0 1;
#X obj 2633 1139 spigot;
#X obj 2637 1089 bng 19 250 50 0 empty empty empty 0 -10 0 12 #fcfcfc #000000 #000000;
#X obj 2696 1109 tgl 19 0 empty empty empty 0 -10 0 12 #fcfcfc #000000 #000000 0 1;
#X obj 1214 1197 bng 19 250 50 0 empty empty empty 0 -10 0 12 #fcfcfc #000000 #000000;
#X obj 1435 1193 bng 19 250 50 0 empty empty empty 0 -10 0 12 #fcfcfc #000000 #000000;
#X obj 1645 1193 bng 19 250 50 0 empty empty empty 0 -10 0 12 #fcfcfc #000000 #000000;
#X obj 1825 1193 bng 19 250 50 0 empty empty empty 0 -10 0 12 #fcfcfc #000000 #000000;
#X obj 2035 1193 bng 19 250 50 0 empty empty empty 0 -10 0 12 #fcfcfc #000000 #000000;
#X obj 2235 1193 bng 19 250 50 0 empty empty empty 0 -10 0 12 #fcfcfc #000000 #000000;
#X obj 2415 1193 bng 19 250 50 0 empty empty empty 0 -10 0 12 #fcfcfc #000000 #000000;
#X obj 2635 1193 bng 19 250 50 0 empty empty empty 0 -10 0 12 #fcfcfc #000000 #000000;
#X obj 1319 992 r NewPattern;
#X obj 1319 1016 bng 19 250 50 0 empty empty empty 0 -10 0 12 #fcfcfc #000000 #000000;
#X obj 1319 1040 random 100;
#X floatatom 1319 1064 5 0 0 0 - - - 0;
#X obj 1539 972 r NewPattern;
#X obj 1539 996 bng 19 250 50 0 empty empty empty 0 -10 0 12 #fcfcfc #000000 #000000;
#X obj 1539 1020 random 100;
#X floatatom 1539 1044 5 0 0 0 - - - 0;
#X obj 1749 972 r NewPattern;
#X obj 1749 996 bng 19 250 50 0 empty empty empty 0 -10 0 12 #fcfcfc #000000 #000000;
#X obj 1749 1020 random 100;
#X floatatom 1749 1044 5 0 0 0 - - - 0;
#X obj 1929 972 r NewPattern;
#X obj 1929 996 bng 19 250 50 0 empty empty empty 0 -10 0 12 #fcfcfc #000000 #000000;
#X obj 1929 1020 random 100;
#X floatatom 1929 1044 5 0 0 0 - - - 0;
#X obj 2139 972 r NewPattern;
#X obj 2139 996 bng 19 250 50 0 empty empty empty 0 -10 0 12 #fcfcfc #000000 #000000;
#X obj 2139 1020 random 100;
#X floatatom 2139 1044 5 0 0 0 - - - 0;
#X obj 2329 972 r NewPattern;
#X obj 2329 996 bng 19 250 50 0 empty empty empty 0 -10 0 12 #fcfcfc #000000 #000000;
#X obj 2329 1020 random 100;
#X floatatom 2329 1044 5 0 0 0 - - - 0;
#X obj 2519 972 r NewPattern;
#X obj 2519 996 bng 19 250 50 0 empty empty empty 0 -10 0 12 #fcfcfc #000000 #000000;
#X obj 2519 1020 random 100;
#X floatatom 2519 1044 5 0 0 0 - - - 0;
#X obj 2739 972 r NewPattern;
#X obj 2739 996 bng 19 250 50 0 empty empty empty 0 -10 0 12 #fcfcfc #000000 #000000;
#X obj 2739 1020 random 100;
#X floatatom 2739 1044 5 0 0 0 - - - 0;
#X obj 1679 1283 send Snare;
#X obj 1539 1067 < 100;
#X obj 1929 1067 < 100;
#X obj 2329 1067 < 100;
#X obj 2739 1067 < 100;
#X obj 2139 1067 < 10;
#X obj 1743 -112 receive One;
#X obj 1965 -115 receive Two;
#X obj 2167 -117 receive Three;
#X obj 2352 -116 receive Four;
#X obj 2563 -114 receive Five;
#X obj 2764 -113 receive Six;
#X obj 2940 -111 receive Seven;
#X obj 3161 -111 receive Eight;
#X obj 1740 -15 spigot;
#X obj 1741 -62 bng 19 250 50 0 empty empty empty 0 -10 0 12 #fcfcfc #000000 #000000;
#X obj 1809 -45 tgl 19 0 empty empty empty 0 -10 0 12 #fcfcfc #000000 #000000 0 1;
#X obj 1962 -19 spigot;
#X obj 1963 -66 bng 19 250 50 0 empty empty empty 0 -10 0 12 #fcfcfc #000000 #000000;
#X obj 2022 -46 tgl 19 0 empty empty empty 0 -10 0 12 #fcfcfc #000000 #000000 0 1;
#X obj 2172 -19 spigot;
#X obj 2173 -66 bng 19 250 50 0 empty empty empty 0 -10 0 12 #fcfcfc #000000 #000000;
#X obj 2232 -46 tgl 19 0 empty empty empty 0 -10 0 12 #fcfcfc #000000 #000000 0 1;
#X obj 2352 -19 spigot;
#X obj 2353 -66 bng 19 250 50 0 empty empty empty 0 -10 0 12 #fcfcfc #000000 #000000;
#X obj 2412 -46 tgl 19 0 empty empty empty 0 -10 0 12 #fcfcfc #000000 #000000 0 1;
#X obj 2563 -19 spigot;
#X obj 2564 -66 bng 19 250 50 0 empty empty empty 0 -10 0 12 #fcfcfc #000000 #000000;
#X obj 2623 -46 tgl 19 0 empty empty empty 0 -10 0 12 #fcfcfc #000000 #000000 0 1;
#X obj 2763 -19 spigot;
#X obj 2764 -66 bng 19 250 50 0 empty empty empty 0 -10 0 12 #fcfcfc #000000 #000000;
#X obj 2823 -46 tgl 19 0 empty empty empty 0 -10 0 12 #fcfcfc #000000 #000000 0 1;
#X obj 2943 -19 spigot;
#X obj 2944 -66 bng 19 250 50 0 empty empty empty 0 -10 0 12 #fcfcfc #000000 #000000;
#X obj 3003 -46 tgl 19 0 empty empty empty 0 -10 0 12 #fcfcfc #000000 #000000 0 1;
#X obj 3160 -16 spigot;
#X obj 3164 -66 bng 19 250 50 0 empty empty empty 0 -10 0 12 #fcfcfc #000000 #000000;
#X obj 3223 -46 tgl 19 0 empty empty empty 0 -10 0 12 #fcfcfc #000000 #000000 0 1;
#X obj 1741 42 bng 19 250 50 0 empty empty empty 0 -10 0 12 #fcfcfc #000000 #000000;
#X obj 1962 38 bng 19 250 50 0 empty empty empty 0 -10 0 12 #fcfcfc #000000 #000000;
#X obj 2172 38 bng 19 250 50 0 empty empty empty 0 -10 0 12 #fcfcfc #000000 #000000;
#X obj 2352 38 bng 19 250 50 0 empty empty empty 0 -10 0 12 #fcfcfc #000000 #000000;
#X obj 2562 38 bng 19 250 50 0 empty empty empty 0 -10 0 12 #fcfcfc #000000 #000000;
#X obj 2762 38 bng 19 250 50 0 empty empty empty 0 -10 0 12 #fcfcfc #000000 #000000;
#X obj 2942 38 bng 19 250 50 0 empty empty empty 0 -10 0 12 #fcfcfc #000000 #000000;
#X obj 3162 38 bng 19 250 50 0 empty empty empty 0 -10 0 12 #fcfcfc #000000 #000000;
#X obj 1846 -163 r NewPattern;
#X obj 1846 -139 bng 19 250 50 0 empty empty empty 0 -10 0 12 #fcfcfc #000000 #000000;
#X obj 1846 -115 random 100;
#X floatatom 1846 -91 5 0 0 0 - - - 0;
#X obj 2066 -183 r NewPattern;
#X obj 2066 -159 bng 19 250 50 0 empty empty empty 0 -10 0 12 #fcfcfc #000000 #000000;
#X obj 2066 -135 random 100;
#X floatatom 2066 -111 5 0 0 0 - - - 0;
#X obj 2276 -183 r NewPattern;
#X obj 2276 -159 bng 19 250 50 0 empty empty empty 0 -10 0 12 #fcfcfc #000000 #000000;
#X obj 2276 -135 random 100;
#X floatatom 2276 -111 5 0 0 0 - - - 0;
#X obj 2456 -183 r NewPattern;
#X obj 2456 -159 bng 19 250 50 0 empty empty empty 0 -10 0 12 #fcfcfc #000000 #000000;
#X obj 2456 -135 random 100;
#X floatatom 2456 -111 5 0 0 0 - - - 0;
#X obj 2666 -183 r NewPattern;
#X obj 2666 -159 bng 19 250 50 0 empty empty empty 0 -10 0 12 #fcfcfc #000000 #000000;
#X obj 2666 -135 random 100;
#X floatatom 2666 -111 5 0 0 0 - - - 0;
#X obj 2856 -183 r NewPattern;
#X obj 2856 -159 bng 19 250 50 0 empty empty empty 0 -10 0 12 #fcfcfc #000000 #000000;
#X obj 2856 -135 random 100;
#X floatatom 2856 -111 5 0 0 0 - - - 0;
#X obj 3046 -183 r NewPattern;
#X obj 3046 -159 bng 19 250 50 0 empty empty empty 0 -10 0 12 #fcfcfc #000000 #000000;
#X obj 3046 -135 random 100;
#X floatatom 3046 -111 5 0 0 0 - - - 0;
#X obj 3266 -183 r NewPattern;
#X obj 3266 -159 bng 19 250 50 0 empty empty empty 0 -10 0 12 #fcfcfc #000000 #000000;
#X obj 3266 -135 random 100;
#X floatatom 3266 -111 5 0 0 0 - - - 0;
#X obj 2206 128 send Synth;
#X obj 2066 -88 < 10;
#X obj 2276 -88 < 10;
#X obj 2456 -88 < 30;
#X obj 2856 -88 < 10;
#X obj 3046 -88 < 10;
#X obj 3266 -88 < 30;
#X obj 1846 -68 < 40;
#X obj 2666 -88 < 40;
#X obj 2128 348 bng 19 250 50 0 empty empty empty 0 -10 0 12 #fcfcfc #000000 #000000;
#X obj 2129 300 receive Synth;
#X obj 339 767 < 0;
#X obj 729 767 < 0;
#X obj 939 767 < 85;
#X obj 1319 1087 < 0;
#X obj 1749 1067 < 0;
#N canvas 101 355 513 414 message-out 0;
#X obj 20 17 inlet;
#X obj 20 63 s \$0-program-data;
#X obj 20 40 route program_data bank_data, f 39;
#X obj 135 63 s \$0-bank-data;
#X obj 278 135 print;
#X obj 278 114 spigot 1;
#X obj 337 114 tgl 15 0 empty empty empty 17 7 0 10 #fcfcfc #000000 #000000 0 1;
#X text 358 113 print messages;
#X obj 251 86 s \$0-out;
#X obj 251 63 t a a;
#X msg 28 178 param_automated <index> <value>;
#X msg 28 204 latency <numsamples>;
#X msg 30 257 midi <bytes...>;
#X msg 29 284 sysex <bytes...>;
#X text 233 172 a parameter has been changed in the GUI (or by changing a linked parameter)., f 40;
#X text 162 204 the plugin's internal processing latency has changed;
#X text 139 257 a MIDI message sent by the plugin;
#X text 139 284 a SysEx message sent by the plugin;
#X text 28 153 events:;
#X text 163 222 NOTE: the value includes the additional latency caused by multithreading (see the "-t" flag for "open"), f 55;
#X msg 29 337 crash;
#X text 312 85 goes to vstpresetbrowser;
#X text 23 87 see [pd preset];
#X text 83 338 the plugin subprocess has crashed.;
#X text 84 356 This is only sent for bridged or sandboxed plugins \, because normal plugins would simply crash Pd., f 52;
#X msg 29 311 update;
#X text 87 312 multiple parameters have changed internally;
#X connect 0 0 2 0;
#X connect 2 0 1 0;
#X connect 2 1 3 0;
#X connect 2 2 9 0;
#X connect 5 0 4 0;
#X connect 6 0 5 1;
#X connect 9 0 8 0;
#X connect 9 1 5 0;
#X restore 788 1293 pd message-out;
#X msg 944 1293 param_list;
#X obj 654 1226 vstplugin~ -k;
#A open -e ValhallaSupermassive;
#A program_set 0;
#A program_data_set 67 99 110 75 0 0 2 80 70 80 67 104 0 0 0 1 115 77 97 115 0 1 0 0 0 0 0 18 0 0 0 0 0 0 0 0 0 0 0 0 0 0 0 0 0 0 0 0 0 0 0 0 0 0 0 0 0 0 2 28 86 67 50 33 19 2 0 0 60 63 120 109 108 32 118 101 114 115 105 111 110 61 34 49 46 48 34 32 101 110 99 111 100 105 110 103 61 34 85 84 70 45 56 34 63 62 32 60 86 97 108 104 97 108 108 97 83 117 112 101 114 109 97 115 115 105 118 101 32 112 108 117 103 105 110 86 101 114 115 105 111 110 61 34 49 46 48 46 48 34 32 112 114 101 115 101 116 78 97 109 101 61 34 83 112 108 97 115 104 121 32 83 112 97 99 101 34 32 77 105 120 61 34 48 46 53 34 32 68 101 108 97 121 83 121 110 99 61 34 48 46 50 53 34 32 68 101 108 97 121 78 111 116 101 61 34 48 46 48 53 48 48 48 48 48 48 48 55 52 53 48 53 56 48 54 34 32 68 101 108 97 121 95 77 115 61 34 48 46 53 53 48 48 48 48 48 49 49 57 50 48 57 50 57 34 32 68 101 108 97 121 87 97 114 112 61 34 49 46 48 34 32 67 108 101 97 114 61 34 49 46 48 34 32 70 101 101 100 98 97 99 107 61 34 48 46 53 54 48 48 48 48 48 48 50 51 56 52 49 56 53 56 34 32 68 101 110 115 105 116 121 61 34 49 46 48 34 32 87 105 100 116 104 61 34 49 46 48 34 32 76 111 119 67 117 116 61 34 48 46 48 51 50 48 48 48 48 48 49 53 49 57 57 49 56 52 52 34 32 72 105 103 104 67 117 116 61 34 48 46 51 48 48 48 48 48 48 49 49 57 50 48 57 50 57 34 32 77 111 100 82 97 116 101 61 34 48 46 50 57 56 48 48 48 48 48 55 56 54 55 56 49 51 49 34 32 77 111 100 68 101 112 116 104 61 34 48 46 49 48 52 48 48 48 48 48 50 49 52 53 55 54 55 50 34 32 77 111 100 101 61 34 48 46 48 56 51 51 51 51 51 51 53 56 49 54 56 54 48 50 34 32 82 101 115 101 114 118 101 100 49 61 34 48 46 48 34 32 82 101 115 101 114 118 101 100 50 61 34 48 46 48 34 32 82 101 115 101 114 118 101 100 51 61 34 48 46 48 34 32 82 101 115 101 114 118 101 100 52 61 34 48 46 48 34 32 109 105 120 76 111 99 107 61 34 48 34 32 117 105 87 105 100 116 104 61 34 49 49 54 48 34 32 117 105 72 101 105 103 104 116 61 34 54 49 53 34 47 62 0;
#X msg 786 1267 open -e ValhallaSupermassive;
#X obj 2519 1073 < 0;
#X obj 130 33 inlet;
#X obj 360 1279 outlet;
#X obj 654 1279 *~ 0.25;
#X obj 473 1203 *~ 0.3;
#X connect 0 0 85 0;
#X connect 1 0 7 0;
#X connect 2 0 1 0;
#X connect 2 0 3 0;
#X connect 3 0 4 0;
#X connect 4 0 8 0;
#X connect 5 0 4 0;
#X connect 6 0 10 0;
#X connect 6 0 9 0;
#X connect 7 0 6 0;
#X connect 8 0 6 0;
#X connect 9 0 6 1;
#X connect 10 0 11 0;
#X connect 10 0 180 0;
#X connect 11 0 81 0;
#X connect 12 0 29 0;
#X connect 13 0 30 0;
#X connect 14 0 31 0;
#X connect 15 0 32 0;
#X connect 16 0 33 0;
#X connect 17 0 34 0;
#X connect 18 0 35 0;
#X connect 19 0 20 0;
#X connect 20 0 21 0;
#X connect 22 0 12 0;
#X connect 23 0 13 0;
#X connect 24 0 14 0;
#X connect 25 0 15 0;
#X connect 26 0 16 0;
#X connect 27 0 17 0;
#X connect 28 0 18 0;
#X connect 36 0 45 0;
#X connect 37 0 48 0;
#X connect 38 0 51 0;
#X connect 39 0 54 0;
#X connect 40 0 57 0;
#X connect 41 0 60 0;
#X connect 42 0 63 0;
#X connect 43 0 66 0;
#X connect 44 0 68 0;
#X connect 45 0 44 0;
#X connect 46 0 44 1;
#X connect 47 0 69 0;
#X connect 48 0 47 0;
#X connect 49 0 47 1;
#X connect 50 0 70 0;
#X connect 51 0 50 0;
#X connect 52 0 50 1;
#X connect 53 0 71 0;
#X connect 54 0 53 0;
#X connect 55 0 53 1;
#X connect 56 0 72 0;
#X connect 57 0 56 0;
#X connect 58 0 56 1;
#X connect 59 0 73 0;
#X connect 60 0 59 0;
#X connect 61 0 59 1;
#X connect 62 0 74 0;
#X connect 63 0 62 0;
#X connect 64 0 62 1;
#X connect 65 0 75 0;
#X connect 66 0 65 0;
#X connect 67 0 65 1;
#X connect 68 0 83 0;
#X connect 69 0 83 0;
#X connect 70 0 83 0;
#X connect 71 0 83 0;
#X connect 72 0 83 0;
#X connect 73 0 83 0;
#X connect 74 0 83 0;
#X connect 75 0 83 0;
#X connect 76 0 79 0;
#X connect 77 0 397 0;
#X connect 79 0 77 0;
#X connect 80 0 19 0;
#X connect 80 0 22 0;
#X connect 80 0 23 0;
#X connect 80 0 24 0;
#X connect 80 0 25 0;
#X connect 80 0 26 0;
#X connect 80 0 27 0;
#X connect 80 0 28 0;
#X connect 81 0 80 0;
#X connect 84 0 76 0;
#X connect 85 0 86 0;
#X connect 86 0 1 1;
#X connect 87 0 111 0;
#X connect 88 0 87 0;
#X connect 89 0 87 1;
#X connect 90 0 112 0;
#X connect 91 0 90 0;
#X connect 92 0 90 1;
#X connect 93 0 113 0;
#X connect 94 0 93 0;
#X connect 95 0 93 1;
#X connect 96 0 114 0;
#X connect 97 0 96 0;
#X connect 98 0 96 1;
#X connect 99 0 115 0;
#X connect 100 0 99 0;
#X connect 101 0 99 1;
#X connect 102 0 116 0;
#X connect 103 0 102 0;
#X connect 104 0 102 1;
#X connect 105 0 117 0;
#X connect 106 0 105 0;
#X connect 107 0 105 1;
#X connect 108 0 118 0;
#X connect 109 0 108 0;
#X connect 110 0 108 1;
#X connect 111 0 127 0;
#X connect 112 0 127 0;
#X connect 113 0 127 0;
#X connect 114 0 127 0;
#X connect 115 0 127 0;
#X connect 116 0 127 0;
#X connect 117 0 127 0;
#X connect 118 0 127 0;
#X connect 119 0 128 0;
#X connect 120 0 391 0;
#X connect 122 0 129 0;
#X connect 123 0 179 0;
#X connect 125 0 119 0;
#X connect 126 0 122 0;
#X connect 128 0 120 0;
#X connect 129 0 123 0;
#X connect 130 0 161 0;
#X connect 131 0 137 0;
#X connect 132 0 131 0;
#X connect 132 0 133 0;
#X connect 133 0 134 0;
#X connect 134 0 138 0;
#X connect 135 0 134 0;
#X connect 136 0 140 0;
#X connect 136 0 139 0;
#X connect 137 0 136 0;
#X connect 138 0 136 0;
#X connect 139 0 136 1;
#X connect 140 0 141 0;
#X connect 141 0 159 0;
#X connect 142 0 165 0;
#X connect 143 0 167 0;
#X connect 144 0 168 0;
#X connect 145 0 170 0;
#X connect 146 0 172 0;
#X connect 147 0 173 0;
#X connect 148 0 175 0;
#X connect 149 0 150 0;
#X connect 150 0 163 0;
#X connect 151 0 142 0;
#X connect 152 0 143 0;
#X connect 153 0 144 0;
#X connect 154 0 145 0;
#X connect 155 0 146 0;
#X connect 156 0 147 0;
#X connect 157 0 148 0;
#X connect 158 0 149 0;
#X connect 158 0 151 0;
#X connect 158 0 152 0;
#X connect 158 0 153 0;
#X connect 158 0 154 0;
#X connect 158 0 155 0;
#X connect 158 0 156 0;
#X connect 158 0 157 0;
#X connect 159 0 158 0;
#X connect 161 0 162 0;
#X connect 162 0 131 1;
#X connect 164 0 88 0;
#X connect 166 0 91 0;
#X connect 169 0 94 0;
#X connect 171 0 97 0;
#X connect 174 0 100 0;
#X connect 176 0 103 0;
#X connect 177 0 106 0;
#X connect 178 0 109 0;
#X connect 179 0 124 0;
#X connect 179 0 124 1;
#X connect 180 0 181 0;
#X connect 181 0 182 0;
#X connect 182 0 183 0;
#X connect 183 0 184 0;
#X connect 184 0 185 0;
#X connect 186 0 187 0;
#X connect 187 0 188 0;
#X connect 188 0 189 0;
#X connect 189 0 190 0;
#X connect 190 0 46 0;
#X connect 191 0 192 0;
#X connect 192 0 193 0;
#X connect 193 0 194 0;
#X connect 194 0 384 0;
#X connect 195 0 196 0;
#X connect 196 0 197 0;
#X connect 197 0 198 0;
#X connect 198 0 220 0;
#X connect 199 0 200 0;
#X connect 200 0 201 0;
#X connect 201 0 202 0;
#X connect 202 0 385 0;
#X connect 203 0 204 0;
#X connect 204 0 205 0;
#X connect 205 0 206 0;
#X connect 206 0 386 0;
#X connect 207 0 208 0;
#X connect 208 0 209 0;
#X connect 209 0 210 0;
#X connect 210 0 211 0;
#X connect 211 0 61 0;
#X connect 212 0 213 0;
#X connect 213 0 214 0;
#X connect 214 0 215 0;
#X connect 215 0 221 0;
#X connect 216 0 217 0;
#X connect 217 0 218 0;
#X connect 218 0 219 0;
#X connect 219 0 222 0;
#X connect 220 0 52 0;
#X connect 221 0 64 0;
#X connect 222 0 67 0;
#X connect 223 0 232 0;
#X connect 224 0 235 0;
#X connect 225 0 238 0;
#X connect 226 0 241 0;
#X connect 227 0 244 0;
#X connect 228 0 247 0;
#X connect 229 0 250 0;
#X connect 230 0 253 0;
#X connect 231 0 255 0;
#X connect 232 0 231 0;
#X connect 233 0 231 1;
#X connect 234 0 256 0;
#X connect 235 0 234 0;
#X connect 236 0 234 1;
#X connect 237 0 257 0;
#X connect 238 0 237 0;
#X connect 239 0 237 1;
#X connect 240 0 258 0;
#X connect 241 0 240 0;
#X connect 242 0 240 1;
#X connect 243 0 259 0;
#X connect 244 0 243 0;
#X connect 245 0 243 1;
#X connect 246 0 260 0;
#X connect 247 0 246 0;
#X connect 248 0 246 1;
#X connect 249 0 261 0;
#X connect 250 0 249 0;
#X connect 251 0 249 1;
#X connect 252 0 262 0;
#X connect 253 0 252 0;
#X connect 254 0 252 1;
#X connect 255 0 295 0;
#X connect 256 0 295 0;
#X connect 257 0 295 0;
#X connect 258 0 295 0;
#X connect 259 0 295 0;
#X connect 260 0 295 0;
#X connect 261 0 295 0;
#X connect 262 0 295 0;
#X connect 263 0 264 0;
#X connect 264 0 265 0;
#X connect 265 0 266 0;
#X connect 266 0 387 0;
#X connect 267 0 268 0;
#X connect 268 0 269 0;
#X connect 269 0 270 0;
#X connect 270 0 296 0;
#X connect 271 0 272 0;
#X connect 272 0 273 0;
#X connect 273 0 274 0;
#X connect 274 0 388 0;
#X connect 275 0 276 0;
#X connect 276 0 277 0;
#X connect 277 0 278 0;
#X connect 278 0 297 0;
#X connect 279 0 280 0;
#X connect 280 0 281 0;
#X connect 281 0 282 0;
#X connect 282 0 300 0;
#X connect 283 0 284 0;
#X connect 284 0 285 0;
#X connect 285 0 286 0;
#X connect 286 0 298 0;
#X connect 287 0 288 0;
#X connect 288 0 289 0;
#X connect 289 0 290 0;
#X connect 290 0 393 0;
#X connect 291 0 292 0;
#X connect 292 0 293 0;
#X connect 293 0 294 0;
#X connect 294 0 299 0;
#X connect 296 0 236 0;
#X connect 297 0 242 0;
#X connect 298 0 248 0;
#X connect 299 0 254 0;
#X connect 300 0 245 0;
#X connect 301 0 310 0;
#X connect 302 0 313 0;
#X connect 303 0 316 0;
#X connect 304 0 319 0;
#X connect 305 0 322 0;
#X connect 306 0 325 0;
#X connect 307 0 328 0;
#X connect 308 0 331 0;
#X connect 309 0 333 0;
#X connect 310 0 309 0;
#X connect 311 0 309 1;
#X connect 312 0 334 0;
#X connect 313 0 312 0;
#X connect 314 0 312 1;
#X connect 315 0 335 0;
#X connect 316 0 315 0;
#X connect 317 0 315 1;
#X connect 318 0 336 0;
#X connect 319 0 318 0;
#X connect 320 0 318 1;
#X connect 321 0 337 0;
#X connect 322 0 321 0;
#X connect 323 0 321 1;
#X connect 324 0 338 0;
#X connect 325 0 324 0;
#X connect 326 0 324 1;
#X connect 327 0 339 0;
#X connect 328 0 327 0;
#X connect 329 0 327 1;
#X connect 330 0 340 0;
#X connect 331 0 330 0;
#X connect 332 0 330 1;
#X connect 333 0 373 0;
#X connect 334 0 373 0;
#X connect 335 0 373 0;
#X connect 336 0 373 0;
#X connect 337 0 373 0;
#X connect 338 0 373 0;
#X connect 339 0 373 0;
#X connect 340 0 373 0;
#X connect 341 0 342 0;
#X connect 342 0 343 0;
#X connect 343 0 344 0;
#X connect 344 0 380 0;
#X connect 345 0 346 0;
#X connect 346 0 347 0;
#X connect 347 0 348 0;
#X connect 348 0 374 0;
#X connect 349 0 350 0;
#X connect 350 0 351 0;
#X connect 351 0 352 0;
#X connect 352 0 375 0;
#X connect 353 0 354 0;
#X connect 354 0 355 0;
#X connect 355 0 356 0;
#X connect 356 0 376 0;
#X connect 357 0 358 0;
#X connect 358 0 359 0;
#X connect 359 0 360 0;
#X connect 360 0 381 0;
#X connect 361 0 362 0;
#X connect 362 0 363 0;
#X connect 363 0 364 0;
#X connect 364 0 377 0;
#X connect 365 0 366 0;
#X connect 366 0 367 0;
#X connect 367 0 368 0;
#X connect 368 0 378 0;
#X connect 369 0 370 0;
#X connect 370 0 371 0;
#X connect 371 0 372 0;
#X connect 372 0 379 0;
#X connect 374 0 314 0;
#X connect 375 0 317 0;
#X connect 376 0 320 0;
#X connect 377 0 326 0;
#X connect 378 0 329 0;
#X connect 379 0 332 0;
#X connect 380 0 311 0;
#X connect 381 0 323 0;
#X connect 383 0 382 0;
#X connect 384 0 49 0;
#X connect 385 0 55 0;
#X connect 386 0 58 0;
#X connect 387 0 233 0;
#X connect 388 0 239 0;
#X connect 390 0 391 0;
#X connect 391 0 396 0;
#X connect 391 2 389 0;
#X connect 392 0 391 0;
#X connect 393 0 251 0;
#X connect 394 0 2 0;
#X connect 396 0 121 0;
#X connect 396 0 121 1;
#X connect 397 0 78 0;
#X connect 397 0 78 1;
