#N canvas 269 322 1058 555 12;
#X obj 460 265 *~ -1;
#X obj 212 378 outlet~;
#X obj 314 378 outlet~;
#X obj 709 378 outlet~;
#X obj 786 376 outlet~;
#X obj 372 158 inlet~;
#X obj 581 158 inlet~;
#X obj 561 380 outlet~;
#X obj 638 378 outlet~;
#X obj 388 379 outlet~;
#X obj 463 379 outlet~;
#X text 207 420 1;
#X text 321 421 2;
#X text 419 421 3;
#X text 491 420 4;
#X text 568 418 5;
#X text 647 417 6;
#X text 722 416 7;
#X text 796 415 8;
#X obj 574 262 -~ -1;
#X connect 0 0 2 0;
#X connect 0 0 9 0;
#X connect 0 0 10 0;
#X connect 0 0 1 0;
#X connect 5 0 0 0;
#X connect 5 0 19 0;
#X connect 6 0 0 0;
#X connect 6 0 19 1;
#X connect 19 0 4 0;
#X connect 19 0 7 0;
#X connect 19 0 8 0;
#X connect 19 0 3 0;
